<svg width="81" height="18" viewBox="0 0 81 18" fill="none" xmlns="http://www.w3.org/2000/svg">
<path d="M12.3203 12.0371C12.127 13.6914 11.5146 14.9697 10.4834 15.8721C9.45931 16.7673 8.09505 17.2148 6.39062 17.2148C4.54297 17.2148 3.06055 16.5524 1.94336 15.2275C0.833333 13.9027 0.27832 12.1302 0.27832 9.91016V8.40625C0.27832 6.95247 0.536133 5.67415 1.05176 4.57129C1.57454 3.46842 2.31217 2.62337 3.26465 2.03613C4.21712 1.44173 5.31999 1.14453 6.57324 1.14453C8.2347 1.14453 9.56673 1.61003 10.5693 2.54102C11.5719 3.46484 12.1556 4.74674 12.3203 6.38672H10.2471C10.068 5.14062 9.67773 4.23828 9.07617 3.67969C8.48177 3.12109 7.64746 2.8418 6.57324 2.8418C5.25553 2.8418 4.2207 3.32878 3.46875 4.30273C2.72396 5.27669 2.35156 6.66243 2.35156 8.45996V9.97461C2.35156 11.6719 2.70605 13.0218 3.41504 14.0244C4.12402 15.027 5.11589 15.5283 6.39062 15.5283C7.53646 15.5283 8.41374 15.2705 9.02246 14.7549C9.63835 14.2321 10.0465 13.3262 10.2471 12.0371H12.3203ZM18.9697 11.167H13.7275V9.54492H18.9697V11.167ZM24.5986 12.0693L24.8994 14.1318L25.3398 12.2734L28.4336 1.35938H30.1738L33.1924 12.2734L33.6221 14.1641L33.9551 12.0586L36.3828 1.35938H38.4561L34.6641 17H32.7842L29.5615 5.60254L29.3145 4.41016L29.0674 5.60254L25.7266 17H23.8467L20.0654 1.35938H22.1279L24.5986 12.0693ZM39.5732 11.0811C39.5732 9.94238 39.7952 8.91829 40.2393 8.00879C40.6904 7.09928 41.3135 6.39746 42.1084 5.90332C42.9105 5.40918 43.8236 5.16211 44.8477 5.16211C46.4303 5.16211 47.7087 5.70996 48.6826 6.80566C49.6637 7.90137 50.1543 9.35872 50.1543 11.1777V11.3174C50.1543 12.4489 49.9359 13.4658 49.499 14.3682C49.0693 15.2633 48.4499 15.9616 47.6406 16.4629C46.8385 16.9642 45.9147 17.2148 44.8691 17.2148C43.2936 17.2148 42.0153 16.667 41.0342 15.5713C40.0602 14.4756 39.5732 13.0254 39.5732 11.2207V11.0811ZM41.5713 11.3174C41.5713 12.6064 41.8685 13.6413 42.4629 14.4219C43.0645 15.2025 43.8665 15.5928 44.8691 15.5928C45.8789 15.5928 46.681 15.1989 47.2754 14.4111C47.8698 13.6162 48.167 12.5062 48.167 11.0811C48.167 9.80632 47.8626 8.77507 47.2539 7.9873C46.6523 7.19238 45.8503 6.79492 44.8477 6.79492C43.8665 6.79492 43.0752 7.18522 42.4736 7.96582C41.8721 8.74642 41.5713 9.86361 41.5713 11.3174ZM58.2646 7.16016C57.9639 7.11003 57.638 7.08496 57.2871 7.08496C55.9837 7.08496 55.0993 7.63997 54.6338 8.75V17H52.6465V5.37695H54.5801L54.6123 6.71973C55.264 5.68132 56.1878 5.16211 57.3838 5.16211C57.7705 5.16211 58.0641 5.21224 58.2646 5.3125V7.16016ZM63.3457 11.6182L62.0996 12.918V17H60.1123V0.5H62.0996V10.4795L63.1631 9.20117L66.7832 5.37695H69.2002L64.6777 10.2324L69.7266 17H67.3955L63.3457 11.6182ZM78.0195 13.917C78.0195 13.3799 77.8154 12.9645 77.4072 12.6709C77.0062 12.3701 76.3008 12.1123 75.291 11.8975C74.2884 11.6826 73.4899 11.4248 72.8955 11.124C72.3083 10.8232 71.8714 10.4652 71.585 10.0498C71.3057 9.63444 71.166 9.1403 71.166 8.56738C71.166 7.61491 71.5671 6.80924 72.3691 6.15039C73.1784 5.49154 74.2096 5.16211 75.4629 5.16211C76.7806 5.16211 77.8477 5.50228 78.6641 6.18262C79.4876 6.86296 79.8994 7.73307 79.8994 8.79297H77.9014C77.9014 8.2487 77.6686 7.77962 77.2031 7.38574C76.7448 6.99186 76.1647 6.79492 75.4629 6.79492C74.7396 6.79492 74.1738 6.95247 73.7656 7.26758C73.3574 7.58268 73.1533 7.99447 73.1533 8.50293C73.1533 8.98275 73.3431 9.3444 73.7227 9.58789C74.1022 9.83138 74.7861 10.0641 75.7744 10.2861C76.7699 10.5081 77.5755 10.7731 78.1914 11.0811C78.8073 11.389 79.262 11.7614 79.5557 12.1982C79.8564 12.6279 80.0068 13.1543 80.0068 13.7773C80.0068 14.8158 79.5915 15.6501 78.7607 16.2803C77.93 16.9033 76.8522 17.2148 75.5273 17.2148C74.5964 17.2148 73.7728 17.0501 73.0566 16.7207C72.3405 16.3913 71.7783 15.9329 71.3701 15.3457C70.9691 14.7513 70.7686 14.1104 70.7686 13.4229H72.7559C72.7917 14.0889 73.0566 14.6188 73.5508 15.0127C74.0521 15.3994 74.7109 15.5928 75.5273 15.5928C76.2793 15.5928 76.8809 15.4424 77.332 15.1416C77.7904 14.8337 78.0195 14.4255 78.0195 13.917Z" fill="white"/>
</svg>
